<svg width="800" height="600" xmlns="http://www.w3.org/2000/svg" xml:space="preserve" version="1.1">

 <g>
  <title>Layer 1</title>
  <g stroke="null" id="svg_27">
   <path stroke="null" fill="#DC1E28" d="m517.41424,213.66202c-1.62137,0 -4.05343,0.54046 -6.48548,0.81069c-4.86411,1.08091 -10.53891,2.70228 -13.51142,4.05343c-3.51297,1.8916 -8.37708,5.94503 -17.02439,15.40302l-12.97096,13.78165l-7.83662,1.08091l0,0c-1.8916,0.27023 -3.7832,0.54046 -5.40457,0.81069c-1.35114,0.27023 -1.8916,0.27023 -2.43206,0.54046c0,0 0,0 0,0.27023c-0.27023,0.54046 -1.08091,1.35114 -1.62137,2.43206c-1.35114,1.8916 -2.97251,4.86411 -4.32365,7.5664c-1.62137,2.70228 -2.97251,5.6748 -4.05343,8.10685c-0.54046,1.08091 -1.08091,2.16183 -1.35114,2.97251c-0.27023,0.81069 -0.54046,1.62137 -0.27023,1.35114c0,1.35114 0,1.08091 0,1.08091c0,0 0.81069,0.27023 2.43206,-0.81069l5.94503,-3.51297l9.458,8.37708l9.458,8.37708l-2.97251,6.75571l0,0c-0.81069,1.8916 -0.54046,2.97251 -0.54046,3.24274c0,0 0.27023,0 0.54046,0c-0.27023,0 1.62137,-0.54046 3.51297,-1.62137c1.8916,-1.08091 4.32365,-2.43206 6.75571,-3.7832c2.43206,-1.35114 4.59388,-2.97251 6.75571,-4.32365c1.8916,-1.35114 3.51297,-2.70228 3.7832,-2.97251c1.08091,-1.08091 1.8916,-3.24274 1.62137,-7.29617l-0.27023,-7.83662l11.34959,-11.89005c12.16028,-12.70074 16.21371,-18.37553 18.64576,-25.94193c1.08091,-3.7832 1.8916,-8.37708 2.16183,-11.89005c0.27023,-1.8916 0.27023,-3.24274 0,-4.32365c0,-0.27023 0,-0.27023 0,-0.27023c-0.54046,-0.54046 -1.08091,-0.54046 -1.35114,-0.54046l0,0zm-18.10531,14.86256c0.54046,0 0.81069,0 1.35114,0.27023c3.51297,0.81069 5.6748,4.59388 4.86411,8.10685c-0.81069,3.51297 -4.59388,5.94503 -8.10685,4.86411c-3.51297,-0.81069 -5.6748,-4.59388 -4.86411,-8.10685c0.81069,-3.24274 3.51297,-5.40457 6.75571,-5.13434z" class="st1" id="path5778_5_"/>
   <path stroke="null" fill="#DC1E28" d="m446.34416,327.69842c2.16183,-0.27023 5.13434,-1.08091 6.75571,-2.16183c2.16183,-1.08091 3.51297,-2.70228 4.59388,-4.86411c0.81069,-1.62137 0.81069,-1.8916 0.81069,-4.59388c0,-3.24274 -0.27023,-5.13434 -1.62137,-8.10685c-1.08091,-2.16183 -2.97251,-4.59388 -4.86411,-5.94503c-3.7832,-2.70228 -8.10685,-3.51297 -12.97096,-2.43206l-0.81069,0.27023l0,-1.35114c-0.27023,-4.86411 -1.8916,-8.91754 -5.40457,-12.43051c-2.97251,-2.97251 -6.21525,-4.59388 -10.26868,-5.40457c-1.35114,-0.27023 -2.70228,-0.27023 -3.24274,-0.27023l-0.81069,0l-0.27023,-2.97251c-0.27023,-4.86411 -1.62137,-10.26868 -3.7832,-14.32211c-1.35114,-2.70228 -1.8916,-3.51297 -3.24274,-5.40457c-6.48548,-8.91754 -16.75416,-14.32211 -27.5633,-14.32211c-2.16183,0 -5.13434,0.27023 -8.10685,1.08091c-8.10685,1.8916 -15.94348,7.83662 -20.53736,15.13279c-1.8916,3.24274 -3.51297,7.02594 -4.32365,10.80914c-0.27023,1.35114 -0.54046,2.43206 -0.54046,2.43206c0,0 -0.81069,0 -1.62137,-0.27023c-5.13434,-1.62137 -11.07937,-1.62137 -16.21371,0.27023c-1.8916,0.54046 -6.21525,2.97251 -7.83662,4.32365c-5.6748,4.32365 -9.458,11.07937 -10.53891,18.37553c-0.54046,2.97251 -0.27023,8.37708 0.54046,11.07937c2.97251,11.34959 12.16028,19.45645 22.96942,20.80759c2.97251,0.54046 106.47,0.54046 108.90206,0.27023l0,0z" class="st1" id="path3803-5-0-3-0-7-6_5_"/>
   <g stroke="null" id="svg_1" enable-background="new" class="st2">
    <path stroke="null" id="svg_2" d="m244.75375,379.04182l5.6748,-22.15873l4.86411,0l-8.37708,28.91444l-4.05343,0l-7.02594,-21.8885l-6.75571,21.8885l-4.05343,0l-8.37708,-28.91444l4.86411,0l5.6748,21.61827l6.75571,-21.61827l4.05343,0l6.75571,22.15873z"/>
   </g>
   <g stroke="null" id="svg_3" enable-background="new" class="st2">
    <path stroke="null" id="svg_4" d="m272.31705,386.33799c-4.05343,0 -7.02594,-1.35114 -9.458,-3.7832c-2.43206,-2.70228 -3.7832,-5.94503 -3.7832,-10.26868l0,-0.81069c0,-2.97251 0.54046,-5.40457 1.62137,-7.5664c1.08091,-2.16183 2.70228,-4.05343 4.59388,-5.40457c1.8916,-1.35114 4.05343,-1.8916 6.48548,-1.8916c3.7832,0 6.75571,1.35114 8.64731,3.7832c2.16183,2.43206 3.24274,5.94503 3.24274,10.53891l0,2.16183l-19.45645,0c0,2.97251 0.81069,5.13434 2.43206,7.02594s3.51297,2.70228 5.94503,2.70228c1.62137,0 3.24274,-0.27023 4.32365,-1.08091s2.16183,-1.62137 3.24274,-2.70228l2.97251,2.43206c-2.16183,2.97251 -5.94503,4.86411 -10.80914,4.86411zm-0.54046,-25.94193c-1.8916,0 -3.7832,0.81069 -5.13434,2.16183s-2.16183,3.51297 -2.43206,6.21525l14.59234,0l0,-0.27023c-0.27023,-2.43206 -0.81069,-4.32365 -2.16183,-5.94503c-1.08091,-1.35114 -2.70228,-2.16183 -4.86411,-2.16183z"/>
   </g>
   <g stroke="null" id="svg_5" enable-background="new" class="st2">
    <path stroke="null" id="svg_6" d="m313.93223,371.74565c0,4.32365 -1.08091,7.83662 -2.97251,10.53891c-2.16183,2.70228 -4.86411,4.05343 -8.10685,4.05343c-3.7832,0 -6.48548,-1.35114 -8.37708,-3.7832l-0.27023,3.24274l-4.59388,0l0,-41.07472l4.86411,0l0,15.40302c1.8916,-2.43206 4.86411,-3.7832 8.37708,-3.7832c3.51297,0 6.21525,1.35114 8.37708,4.05343c1.8916,2.70228 2.97251,6.21525 2.97251,10.80914l0,0.54046l-0.27023,0zm-5.13434,-0.54046c0,-3.24274 -0.54046,-5.94503 -1.8916,-7.83662c-1.35114,-1.8916 -3.24274,-2.70228 -5.6748,-2.70228c-3.24274,0 -5.6748,1.62137 -7.02594,4.59388l0,12.43051c1.62137,2.97251 3.7832,4.59388 7.02594,4.59388c2.43206,0 4.32365,-0.81069 5.40457,-2.70228c1.62137,-1.8916 2.16183,-4.59388 2.16183,-8.37708z"/>
   </g>
   <g stroke="null" id="svg_7" enable-background="new" class="st2">
    <path stroke="null" id="svg_8" d="m333.92913,361.47697c-0.81069,0 -1.62137,-0.27023 -2.43206,-0.27023c-3.24274,0 -5.40457,1.35114 -6.48548,4.05343l0,20.53736l-4.86411,0l0,-28.91444l4.86411,0l0,3.24274c1.62137,-2.70228 4.05343,-3.7832 7.02594,-3.7832c1.08091,0 1.62137,0 2.16183,0.27023l0,4.86411l-0.27023,0z"/>
   </g>
   <g stroke="null" id="svg_9" enable-background="new" class="st2">
    <path stroke="null" id="svg_10" d="m336.63142,371.2052c0,-2.70228 0.54046,-5.40457 1.62137,-7.5664s2.70228,-4.05343 4.59388,-5.13434c1.8916,-1.35114 4.32365,-1.8916 6.75571,-1.8916c4.05343,0 7.02594,1.35114 9.458,4.05343c2.43206,2.70228 3.51297,6.21525 3.51297,10.80914l0,0.27023c0,2.70228 -0.54046,5.40457 -1.62137,7.5664c-1.08091,2.16183 -2.70228,4.05343 -4.59388,5.13434c-1.8916,1.35114 -4.32365,1.8916 -7.02594,1.8916c-4.05343,0 -7.02594,-1.35114 -9.458,-4.05343c-2.43206,-2.70228 -3.51297,-6.21525 -3.51297,-10.80914l0,-0.27023l0.27023,0zm5.13434,0.54046c0,3.24274 0.81069,5.6748 2.16183,7.83662c1.62137,1.8916 3.51297,2.97251 5.94503,2.97251c2.43206,0 4.59388,-1.08091 5.94503,-2.97251c1.35114,-1.8916 2.16183,-4.59388 2.16183,-8.37708c0,-3.24274 -0.81069,-5.6748 -2.16183,-7.83662c-1.62137,-1.8916 -3.51297,-2.97251 -5.94503,-2.97251c-2.43206,0 -4.32365,1.08091 -5.94503,2.97251c-1.35114,1.8916 -2.16183,4.86411 -2.16183,8.37708z"/>
   </g>
   <g stroke="null" id="svg_11" enable-background="new" class="st2">
    <path stroke="null" id="svg_12" d="m380.94888,382.28456c1.8916,0 3.24274,-0.54046 4.59388,-1.62137c1.35114,-1.08091 2.16183,-2.43206 2.16183,-4.05343l4.59388,0c0,1.62137 -0.54046,3.24274 -1.62137,4.86411c-1.08091,1.62137 -2.43206,2.70228 -4.32365,3.51297c-1.62137,0.81069 -3.51297,1.35114 -5.6748,1.35114c-4.05343,0 -7.02594,-1.35114 -9.458,-4.05343c-2.43206,-2.70228 -3.51297,-6.21525 -3.51297,-10.80914l0,-0.81069c0,-2.70228 0.54046,-5.40457 1.62137,-7.5664c1.08091,-2.16183 2.43206,-3.7832 4.32365,-5.13434c1.8916,-1.08091 4.32365,-1.8916 6.75571,-1.8916c3.24274,0 5.94503,1.08091 8.10685,2.97251c2.16183,1.8916 3.24274,4.59388 3.51297,7.5664l-4.32365,0c-0.27023,-1.8916 -0.81069,-3.51297 -2.16183,-4.59388c-1.35114,-1.08091 -2.97251,-1.8916 -4.59388,-1.8916c-2.43206,0 -4.32365,0.81069 -5.94503,2.70228s-2.16183,4.32365 -2.16183,7.83662l0,0.81069c0,3.24274 0.81069,5.94503 2.16183,7.5664c1.35114,2.43206 3.24274,3.24274 5.94503,3.24274z"/>
   </g>
   <g stroke="null" id="svg_13" enable-background="new" class="st2">
    <path stroke="null" id="svg_14" d="m405.8099,372.55634l-2.97251,3.24274l0,10.26868l-4.86411,0l0,-41.34495l4.86411,0l0,24.86102l2.70228,-3.24274l8.91754,-9.458l5.94503,0l-11.07937,12.16028l12.43051,16.75416l-5.6748,0l-10.26868,-13.24119z"/>
   </g>
   <g stroke="null" id="svg_15" enable-background="new" class="st2">
    <path stroke="null" id="svg_16" d="m437.1564,386.33799c-4.05343,0 -7.02594,-1.35114 -9.458,-3.7832c-2.43206,-2.70228 -3.7832,-5.94503 -3.7832,-10.26868l0,-0.81069c0,-2.97251 0.54046,-5.40457 1.62137,-7.5664c1.08091,-2.16183 2.70228,-4.05343 4.59388,-5.40457c1.8916,-1.35114 4.05343,-1.8916 6.48548,-1.8916c3.7832,0 6.75571,1.35114 8.64731,3.7832c2.16183,2.43206 3.24274,5.94503 3.24274,10.53891l0,2.16183l-19.45645,0c0,2.97251 0.81069,5.13434 2.43206,7.02594s3.51297,2.70228 5.94503,2.70228c1.62137,0 3.24274,-0.27023 4.32365,-1.08091s2.16183,-1.62137 3.24274,-2.70228l2.97251,2.43206c-2.43206,2.97251 -5.94503,4.86411 -10.80914,4.86411zm-0.81069,-25.94193c-1.8916,0 -3.7832,0.81069 -5.13434,2.16183s-1.8916,3.51297 -2.43206,6.21525l14.59234,0l0,-0.27023c-0.27023,-2.43206 -0.81069,-4.32365 -2.16183,-5.94503c-1.08091,-1.35114 -2.70228,-2.16183 -4.86411,-2.16183z"/>
   </g>
   <g stroke="null" id="svg_17" enable-background="new" class="st2">
    <path stroke="null" id="svg_18" d="m460.66627,349.85715l0,7.02594l5.40457,0l0,3.7832l-5.40457,0l0,17.83508c0,1.08091 0.27023,2.16183 0.81069,2.70228c0.54046,0.54046 1.35114,0.81069 2.43206,0.81069c0.54046,0 1.35114,0 2.43206,-0.27023l0,4.05343c-1.35114,0.27023 -2.43206,0.54046 -3.7832,0.54046c-2.16183,0 -3.7832,-0.54046 -4.86411,-1.8916c-1.08091,-1.35114 -1.62137,-3.24274 -1.62137,-5.6748l0,-18.10531l-5.13434,0l0,-3.7832l5.13434,0l0,-7.02594l4.59388,0z"/>
   </g>
   <g stroke="null" id="svg_19" enable-background="new" class="st2">
    <path stroke="null" id="svg_20" fill="#DC1E28" d="m468.77312,383.36548c0,-0.81069 0.27023,-1.62137 0.81069,-2.16183s1.35114,-0.81069 2.16183,-0.81069c1.08091,0 1.8916,0.27023 2.43206,0.81069c0.54046,0.54046 0.81069,1.35114 0.81069,2.16183c0,0.81069 -0.27023,1.62137 -0.81069,2.16183c-0.54046,0.54046 -1.35114,0.81069 -2.43206,0.81069c-1.08091,0 -1.8916,-0.27023 -2.16183,-0.81069s-0.81069,-1.35114 -0.81069,-2.16183z" class="st1"/>
   </g>
   <g stroke="null" id="svg_21" enable-background="new" class="st2">
    <path stroke="null" id="svg_22" fill="#DC1E28" d="m494.71505,382.28456c1.8916,0 3.24274,-0.54046 4.59388,-1.62137c1.35114,-1.08091 2.16183,-2.43206 2.16183,-4.05343l4.59388,0c0,1.62137 -0.54046,3.24274 -1.62137,4.86411c-1.08091,1.62137 -2.43206,2.70228 -4.32365,3.51297c-1.62137,0.81069 -3.51297,1.35114 -5.6748,1.35114c-4.05343,0 -7.02594,-1.35114 -9.458,-4.05343c-2.43206,-2.70228 -3.51297,-6.21525 -3.51297,-10.80914l0,-0.81069c0,-2.70228 0.54046,-5.40457 1.62137,-7.5664c1.08091,-2.16183 2.43206,-3.7832 4.32365,-5.13434c1.8916,-1.08091 4.32365,-1.8916 6.75571,-1.8916c3.24274,0 5.94503,1.08091 8.10685,2.97251c2.16183,1.8916 3.24274,4.59388 3.51297,7.5664l-4.59388,0c-0.27023,-1.8916 -0.81069,-3.51297 -2.16183,-4.59388c-1.35114,-1.08091 -2.97251,-1.8916 -4.59388,-1.8916c-2.43206,0 -4.59388,0.81069 -5.94503,2.70228c-1.35114,1.8916 -2.16183,4.32365 -2.16183,7.83662l0,0.81069c0,3.24274 0.81069,5.94503 2.16183,7.5664c1.62137,2.43206 3.51297,3.24274 6.21525,3.24274z" class="st1"/>
   </g>
   <g stroke="null" id="svg_23" enable-background="new" class="st2">
    <path stroke="null" id="svg_24" fill="#DC1E28" d="m510.3883,371.2052c0,-2.70228 0.54046,-5.40457 1.62137,-7.5664s2.70228,-4.05343 4.59388,-5.13434c1.8916,-1.35114 4.32365,-1.8916 6.75571,-1.8916c4.05343,0 7.02594,1.35114 9.458,4.05343s3.51297,6.21525 3.51297,10.80914l0,0.27023c0,2.70228 -0.54046,5.40457 -1.62137,7.5664s-2.70228,4.05343 -4.59388,5.13434c-1.8916,1.35114 -4.32365,1.8916 -7.02594,1.8916c-4.05343,0 -7.02594,-1.35114 -9.458,-4.05343c-2.43206,-2.70228 -3.51297,-6.21525 -3.51297,-10.80914l0,-0.27023l0.27023,0zm4.86411,0.54046c0,3.24274 0.81069,5.6748 2.16183,7.83662c1.35114,1.8916 3.51297,2.97251 5.94503,2.97251c2.43206,0 4.59388,-1.08091 5.94503,-2.97251c1.35114,-1.8916 2.16183,-4.59388 2.16183,-8.37708c0,-3.24274 -0.81069,-5.6748 -2.16183,-7.83662s-3.51297,-2.97251 -5.94503,-2.97251c-2.43206,0 -4.32365,1.08091 -5.94503,2.97251c-1.35114,1.8916 -2.16183,4.86411 -2.16183,8.37708z" class="st1"/>
   </g>
   <g stroke="null" id="svg_25" enable-background="new" class="st2">
    <path stroke="null" id="svg_26" fill="#DC1E28" d="m547.4096,356.88309l0,3.24274c2.16183,-2.43206 4.86411,-3.7832 8.64731,-3.7832c4.05343,0 6.75571,1.62137 8.37708,4.59388c1.08091,-1.35114 2.16183,-2.43206 3.7832,-3.24274s3.24274,-1.35114 5.40457,-1.35114c6.21525,0 9.458,3.24274 9.72822,9.99845l0,19.45645l-4.86411,0l0,-19.18622c0,-2.16183 -0.54046,-3.51297 -1.35114,-4.59388s-2.43206,-1.62137 -4.86411,-1.62137c-1.8916,0 -3.24274,0.54046 -4.59388,1.62137s-1.8916,2.70228 -2.16183,4.32365l0,19.18622l-4.86411,0l0,-18.91599c0,-4.32365 -2.16183,-6.21525 -6.21525,-6.21525c-3.24274,0 -5.40457,1.35114 -6.75571,4.05343l0,21.07782l-4.86411,0l0,-28.64421l4.59388,0z" class="st1"/>
   </g>
  </g>
 </g>
</svg>