<?xml version="1.0" encoding="UTF-8"?>
<svg xmlns="http://www.w3.org/2000/svg" xmlns:xlink="http://www.w3.org/1999/xlink" width="75" height="31" viewBox="0 0 75 31">
  <defs>
    <path id="trbo-a" d="M0 0.008L28.898 0.008 28.898 30.386 0 30.386z"/>
    <path id="trbo-c" d="M0.074 0.009L22.725 0.009 22.725 30.387 0.074 30.387z"/>
    <path id="trbo-e" d="M0.145 0.032L22.833 0.032 22.833 22.621 0.145 22.621z"/>
  </defs>
  <g fill="none" fill-rule="evenodd">
    <g transform="translate(0 .16)">
      <mask id="trbo-b" fill="#fff">
        <use xlink:href="#trbo-a"/>
      </mask>
      <path fill="#40BFEF" d="M25.2446167,7.79771025 C21.5912833,7.79771025 18.4776167,9.70565991 17.7846167,13.6792327 L15.6806167,25.8685359 L7.84445,25.8685359 C5.88411667,25.8685359 4.80728333,25.1289564 5.19095,22.9878729 L7.05728333,12.3153745 L12.4407833,12.3153745 L13.2476167,7.79771025 L7.86411667,7.79771025 L9.21061667,0.00823818293 L4.40395,0.00823818293 L0.11695,24.4295549 C-0.57605,28.4005955 1.88428333,30.3862001 5.53761667,30.3862001 L19.7077833,30.3862001 L22.32145,15.2360467 C22.7051167,13.095132 23.9747833,12.3555525 25.9747833,12.3555525 L28.0911167,12.3555525 L28.89795,7.79771025 L25.2446167,7.79771025 Z" mask="url(#trbo-b)"/>
    </g>
    <g transform="translate(28.667 .16)">
      <mask id="trbo-d" fill="#fff">
        <use xlink:href="#trbo-c"/>
      </mask>
      <path fill="#40BFEF" d="M17.53205,15.2366375 L16.18805,22.9859316 C15.8018833,25.1293785 14.4553833,25.8691268 12.7253833,25.8691268 L7.91855,25.8691268 C5.92105,25.8691268 4.88405,25.1293785 5.26771667,22.9859316 L7.11421667,12.3561433 L14.4553833,12.3561433 C16.3018833,12.3561433 17.9948833,12.626923 17.53205,15.2366375 M17.18555,7.7983011 L7.91855,7.7983011 L9.26505,0.00882903622 L4.45838333,0.00882903622 L0.191216667,24.5052686 C-0.50195,28.4788413 1.96088333,30.386791 5.61171667,30.386791 L13.2648833,30.386791 C16.9182167,30.386791 19.9947167,28.4788413 20.6853833,24.5052686 L22.60855,13.4841667 C23.2992167,9.51059392 20.8387167,7.7983011 17.18555,7.7983011" mask="url(#trbo-d)"/>
    </g>
    <g transform="translate(52.167 7.926)">
      <mask id="trbo-f" fill="#fff">
        <use xlink:href="#trbo-e"/>
      </mask>
      <path fill="#40BFEF" d="M17.2166167,9.91721915 L17.2166167,9.91721915 L16.29595,15.2222376 C15.83295,17.8294199 14.10295,18.1027317 12.0262833,18.1027317 L7.98945,18.1027317 C6.02911667,18.1027317 4.95245,17.3631522 5.33595,15.2222376 L6.68245,7.4704113 C7.06861667,5.32932781 8.37545,4.58974831 10.3357833,4.58974831 L14.3727833,4.58974831 C14.50145,4.58974831 14.6251167,4.58974831 14.74645,4.59228054 L18.1547833,4.59228054 L17.2166167,9.91721915 Z M17.29595,0.0319060773 L9.60561667,0.0319060773 C5.95228333,0.0319060773 2.87578333,1.82455494 2.18261667,5.79559546 L0.26195,16.6637508 C-0.43105,20.6347913 2.02911667,22.6205648 5.68245,22.6205648 L13.3727833,22.6205648 C17.02595,22.6205648 20.1026167,20.7527931 20.7932833,16.7790516 L22.71645,5.68029466 C23.40945,1.70672192 20.9467833,0.0319060773 17.29595,0.0319060773 L17.29595,0.0319060773 Z" mask="url(#trbo-f)"/>
    </g>
  </g>
</svg>
